<svg xmlns="http://www.w3.org/2000/svg" xmlns:xlink="http://www.w3.org/1999/xlink" width="100" height="100" viewBox="0 0 100 100">
  <defs>
    <clipPath id="clip-path">
      <rect id="사각형_49330" data-name="사각형 49330" width="100" height="100" transform="translate(-13121 -14112)" fill="#fff"/>
    </clipPath>
  </defs>
  <g id="마스크_그룹_699" data-name="마스크 그룹 699" transform="translate(13121 14112)" clip-path="url(#clip-path)">
    <g id="그룹_21326" data-name="그룹 21326" transform="translate(-13104.333 -14112)">
      <path id="path0_fill" d="M16.667,202.274a16.673,16.673,0,0,0,16.667-16.667V168.941H16.667a16.667,16.667,0,1,0,0,33.333Z" transform="translate(0 -102.274)" fill="#0acf83"/>
      <path id="path1_fill" d="M0,101.137A16.673,16.673,0,0,1,16.667,84.471H33.333V117.8H16.667A16.673,16.673,0,0,1,0,101.137Z" transform="translate(0 -51.138)" fill="#a259ff"/>
      <path id="path1_fill_1_" d="M0,16.667A16.673,16.673,0,0,1,16.667,0H33.333V33.333H16.667A16.673,16.673,0,0,1,0,16.667Z" fill="#f24e1e"/>
      <path id="path2_fill" d="M84.471,0h16.667a16.667,16.667,0,1,1,0,33.333H84.471Z" transform="translate(-51.138)" fill="#ff7262"/>
      <path id="path3_fill" d="M117.8,101.137a16.667,16.667,0,1,1-16.667-16.667A16.667,16.667,0,0,1,117.8,101.137Z" transform="translate(-51.138 -51.138)" fill="#1abcfe"/>
    </g>
  </g>
</svg>
