<svg width="100" height="100" viewBox="0 0 100 100" fill="none" xmlns="http://www.w3.org/2000/svg">
<mask id="mask0_89_34" style="mask-type:luminance" maskUnits="userSpaceOnUse" x="0" y="0" width="100" height="100">
<path d="M100 0H0V100H100V0Z" fill="white"/>
</mask>
<g mask="url(#mask0_89_34)">
<path d="M59.9276 43.3308C57.7346 43.3308 56.1016 44.4068 56.1016 46.9988C56.1016 48.9508 57.1776 50.3068 59.8096 50.3068C62.0396 50.3068 63.5546 48.9928 63.5546 46.9188C63.6058 46.4317 63.5469 45.9392 63.3822 45.478C63.2174 45.0167 62.9511 44.5984 62.6028 44.2539C62.2545 43.9095 61.8333 43.6478 61.3702 43.4882C60.9071 43.3286 60.4141 43.2741 59.9276 43.3308ZM55.5456 61.6238C54.969 62.1887 54.6034 62.9341 54.5096 63.7358C54.5096 65.3288 56.5416 65.8078 59.3316 65.8078C61.6436 65.8078 64.7916 65.6458 64.7916 63.4968C64.7916 62.2198 63.2766 62.1408 61.3626 62.0208L55.5446 61.6208L55.5456 61.6238ZM67.3456 43.4488C68.2912 44.578 68.8129 46.0019 68.8206 47.4748C68.8206 51.8988 65.3536 54.4888 60.3326 54.4888C59.272 54.5013 58.2141 54.3807 57.1836 54.1298L55.8676 56.2418L59.7726 56.4808C66.6726 56.9198 70.7316 57.1198 70.7316 62.4188C70.7316 67.0038 66.7076 69.5928 59.7726 69.5928C52.5596 69.5928 49.8096 67.7598 49.8096 64.6118C49.8096 62.8188 50.6096 61.8628 52.0016 60.5458C51.4652 60.3536 51.0049 59.9939 50.6887 59.5199C50.3725 59.046 50.2171 58.4828 50.2456 57.9138C50.299 56.9834 50.7138 56.1107 51.4016 55.4818C52.1186 54.7258 52.9156 53.9668 53.8726 53.0908C52.7879 52.5286 51.888 51.666 51.2803 50.6061C50.6726 49.5463 50.3828 48.3339 50.4456 47.1138C50.4456 42.5318 53.4746 39.3838 59.5716 39.3838C60.8064 39.3508 62.0399 39.4854 63.2386 39.7838H71.0106V43.1708L67.3436 43.4498" fill="white"/>
<path d="M78.0219 36.2122C77.5388 36.2613 77.0507 36.2022 76.5932 36.0393C76.1357 35.8764 75.7202 35.6137 75.3768 35.2703C75.0334 34.9269 74.7707 34.5114 74.6078 34.0539C74.4449 33.5964 74.3858 33.1083 74.4349 32.6252C74.4349 30.3542 75.7499 29.1172 78.0219 29.1172C80.3339 29.1172 81.6489 30.3542 81.6489 32.6232C81.6969 33.1097 81.6357 33.6008 81.4698 34.0606C81.3039 34.5205 81.0375 34.9375 80.69 35.2814C80.3426 35.6252 79.9227 35.8872 79.4612 36.0482C78.9996 36.2093 78.5079 36.2653 78.0219 36.2122ZM72.8789 60.1622V57.0172L74.9119 56.7392C75.4699 56.6582 75.5499 56.5392 75.5499 55.9392V44.2172C75.5499 43.7792 75.4309 43.5002 75.0309 43.3812L72.8789 42.6272L73.3169 39.3992H81.5669V55.9392C81.5669 56.5782 81.6059 56.6562 82.2049 56.7392L84.2379 57.0172V60.1642H72.8789" fill="white"/>
<path d="M99.9985 58.6163C97.9689 59.6011 95.7535 60.1441 93.4985 60.2093C88.7565 60.2093 86.9635 58.2982 86.9635 53.7922V43.3523C86.9635 43.1133 86.9635 42.9522 86.6435 42.9522H83.8545V39.4063C87.3625 39.0063 88.7545 37.2543 89.1955 32.9062H92.9825V38.5663C92.9825 38.8443 92.9825 38.9662 93.3015 38.9662H98.9205V42.9513H92.9825V52.4773C92.9825 54.8293 93.5415 55.7453 95.6925 55.7453C96.7974 55.7226 97.8898 55.507 98.9205 55.1082L99.9965 58.6163" fill="white"/>
<path d="M40.9478 48.1574L22.7238 29.9354C22.4743 29.6859 22.1781 29.488 21.8521 29.353C21.5261 29.2179 21.1767 29.1484 20.8238 29.1484C20.4709 29.1484 20.1215 29.2179 19.7955 29.353C19.4695 29.488 19.1733 29.6859 18.9238 29.9354L15.1398 33.7204L19.9398 38.5204C20.5057 38.3283 21.1142 38.2988 21.696 38.4355C22.2778 38.5721 22.8096 38.8693 23.2308 39.2934C23.652 39.7174 23.9457 40.2511 24.0785 40.8338C24.2112 41.4165 24.1777 42.0248 23.9818 42.5894L28.6098 47.2174C29.3007 46.9807 30.0519 46.988 30.7381 47.2379C31.4243 47.4879 32.0042 47.9655 32.381 48.5911C32.7578 49.2167 32.9088 49.9526 32.8089 50.676C32.709 51.3995 32.3642 52.0669 31.8319 52.5669C31.2996 53.067 30.612 53.3695 29.8837 53.4241C29.1554 53.4787 28.4304 53.2821 27.8295 52.867C27.2286 52.4519 26.7882 51.8434 26.5815 51.1429C26.3748 50.4424 26.4145 49.6923 26.6938 49.0174L22.3778 44.7024V56.0554C23.0316 56.3795 23.5547 56.9177 23.8599 57.5805C24.1651 58.2434 24.234 58.9908 24.055 59.6982C23.8761 60.4056 23.4602 61.0304 22.8766 61.4684C22.293 61.9065 21.5769 62.1313 20.8476 62.1055C20.1184 62.0797 19.42 61.8048 18.8688 61.3267C18.3176 60.8485 17.9468 60.1959 17.8183 59.4776C17.6899 58.7593 17.8114 58.0186 18.1626 57.379C18.5139 56.7394 19.0737 56.2394 19.7488 55.9624V44.5084C19.3563 44.3478 19.0002 44.1098 18.7018 43.8084C18.2525 43.3593 17.9471 42.7867 17.8244 42.1634C17.7017 41.5401 17.7673 40.8943 18.0128 40.3084L13.2798 35.5784L0.784791 48.0744C0.281612 48.5787 -0.000976562 49.262 -0.000976562 49.9744C-0.000976563 50.6868 0.281612 51.3701 0.784791 51.8744L19.0088 70.0944C19.5131 70.5976 20.1964 70.8802 20.9088 70.8802C21.6212 70.8802 22.3045 70.5976 22.8088 70.0944L40.9478 51.9614C41.451 51.4571 41.7336 50.7738 41.7336 50.0614C41.7336 49.349 41.451 48.6657 40.9478 48.1614" fill="#F05133"/>
</g>
</svg>
