<svg xmlns="http://www.w3.org/2000/svg" xmlns:xlink="http://www.w3.org/1999/xlink" width="100" height="100" viewBox="0 0 100 100">
  <defs>
    <clipPath id="clip-path">
      <rect id="사각형_49323" data-name="사각형 49323" width="100" height="100" transform="translate(-13529 -14112)" fill="#fff"/>
    </clipPath>
  </defs>
  <g id="마스크_그룹_696" data-name="마스크 그룹 696" transform="translate(13529 14112)" clip-path="url(#clip-path)">
    <g id="그룹_21324" data-name="그룹 21324" transform="translate(-13529.001 -14082.884)">
      <path id="패스_15018" data-name="패스 15018" d="M71.082,16.517c-2.193,0-3.826,1.076-3.826,3.668,0,1.952,1.076,3.308,3.708,3.308,2.23,0,3.745-1.314,3.745-3.388a3.267,3.267,0,0,0-3.627-3.587ZM66.7,34.81a3.532,3.532,0,0,0-1.036,2.112c0,1.593,2.032,2.072,4.822,2.072,2.312,0,5.46-.162,5.46-2.311,0-1.277-1.515-1.356-3.429-1.476l-5.818-.4Zm11.8-18.175a6.322,6.322,0,0,1,1.475,4.026c0,4.424-3.467,7.014-8.488,7.014a12.679,12.679,0,0,1-3.149-.359l-1.316,2.112,3.905.239c6.9.439,10.959.639,10.959,5.938,0,4.585-4.024,7.174-10.959,7.174-7.213,0-9.963-1.833-9.963-4.981,0-1.793.8-2.749,2.192-4.066A2.655,2.655,0,0,1,61.4,31.1a3.573,3.573,0,0,1,1.156-2.432c.717-.756,1.514-1.515,2.471-2.391A6.364,6.364,0,0,1,61.6,20.3c0-4.582,3.029-7.73,9.126-7.73a13.67,13.67,0,0,1,3.667.4h7.772v3.387l-3.667.279" transform="translate(-11.152 -2.301)" fill="#413000"/>
      <path id="패스_15019" data-name="패스 15019" d="M94.343,7.095a3.273,3.273,0,0,1-3.587-3.587C90.756,1.237,92.071,0,94.343,0c2.312,0,3.627,1.237,3.627,3.506A3.286,3.286,0,0,1,94.343,7.095ZM89.2,31.045V27.9l2.033-.278c.558-.081.638-.2.638-.8V15.1c0-.438-.119-.717-.519-.836L89.2,13.51l.438-3.228h8.25v16.54c0,.639.039.717.638.8l2.033.278v3.147H89.2" transform="translate(-16.319)" fill="#413000"/>
      <path id="패스_15020" data-name="패스 15020" d="M118.778,30.35a15.944,15.944,0,0,1-6.5,1.593c-4.742,0-6.535-1.911-6.535-6.417V15.086c0-.239,0-.4-.32-.4h-2.789V11.14c3.508-.4,4.9-2.152,5.341-6.5h3.787V10.3c0,.278,0,.4.319.4H117.7v3.985h-5.938v9.526c0,2.352.559,3.268,2.71,3.268a9.484,9.484,0,0,0,3.228-.637l1.076,3.508" transform="translate(-18.777 -0.849)" fill="#413000"/>
      <path id="패스_15021" data-name="패스 15021" d="M40.95,19.049,22.726.827a2.687,2.687,0,0,0-3.8,0L15.142,4.612l4.8,4.8a3.192,3.192,0,0,1,4.042,4.069l4.628,4.628a3.194,3.194,0,1,1-1.916,1.8L22.38,15.594V26.947a3.192,3.192,0,1,1-2.629-.093V15.4a3.156,3.156,0,0,1-1.047-.7,3.2,3.2,0,0,1-.689-3.5L13.282,6.47.787,18.966a2.69,2.69,0,0,0,0,3.8l18.224,18.22a2.69,2.69,0,0,0,3.8,0L40.95,22.853a2.69,2.69,0,0,0,0-3.8" transform="translate(0 -0.008)" fill="#f05133"/>
    </g>
  </g>
</svg>
