<svg width="80" height="80" viewBox="0 0 80 80" fill="none" xmlns="http://www.w3.org/2000/svg">
<g clip-path="url(#clip0_89_36)">
<mask id="mask0_89_36" style="mask-type:luminance" maskUnits="userSpaceOnUse" x="0" y="0" width="80" height="80">
<path d="M80 0H0V80H80V0Z" fill="white"/>
</mask>
<g mask="url(#mask0_89_36)">
<path fill-rule="evenodd" clip-rule="evenodd" d="M40 0.988282C30.5003 0.985979 21.3099 4.3647 14.0739 10.5197C6.83781 16.6746 2.0285 25.204 0.506823 34.581C-1.01486 43.958 0.850428 53.5705 5.76879 61.6979C10.6872 69.8252 18.3375 75.9368 27.3504 78.9387C29.3504 79.2891 30.1008 78.0891 30.1008 77.0387C30.1008 76.0891 30.0512 72.9387 30.0512 69.5891C20 71.4387 17.4 67.1387 16.6 64.8883C16.1504 63.7387 14.2 60.1883 12.5 59.2387C11.1 58.4891 9.10002 56.6387 12.4504 56.5891C15.6008 56.5395 17.8504 59.4891 18.6008 60.6891C22.2008 66.7395 27.9512 65.0395 30.2512 63.9891C30.4239 61.9555 31.3297 60.054 32.8 58.6387C23.9 57.6387 14.6 54.1883 14.6 38.8883C14.5439 34.913 16.0108 31.0669 18.7 28.1387C18.3 27.1387 16.9 23.0387 19.1 17.5387C19.1 17.5387 22.4496 16.4891 30.1 21.6387C36.6452 19.8387 43.5549 19.8387 50.1 21.6387C57.7496 16.4387 61.1 17.5387 61.1 17.5387C63.3 23.0387 61.9 27.1387 61.5 28.1387C64.1972 31.0619 65.6654 34.9114 65.6 38.8883C65.6 54.2387 56.2504 57.6387 47.3504 58.6387C48.8008 59.8891 50.0504 62.2891 50.0504 66.0387C50.0504 71.3891 50.0008 75.6891 50.0008 77.0387C50.0008 78.0891 50.7504 79.3387 52.7512 78.9387C61.7457 75.9098 69.3711 69.7831 74.2662 61.6522C79.1613 53.5212 81.0076 43.9153 79.4755 34.549C77.9433 25.1827 73.1325 16.6657 65.9017 10.5183C58.6709 4.37097 49.4908 0.99331 40 0.988282Z" fill="white"/>
</g>
</g>
<defs>
<clipPath id="clip0_89_36">
<rect width="80" height="80" fill="white"/>
</clipPath>
</defs>
</svg>
