<svg xmlns="http://www.w3.org/2000/svg" xmlns:xlink="http://www.w3.org/1999/xlink" width="100" height="100" viewBox="0 0 100 100">
  <defs>
    <clipPath id="clip-path">
      <rect id="사각형_49322" data-name="사각형 49322" width="100" height="100" transform="translate(-13674 -14112)" fill="#fff"/>
    </clipPath>
  </defs>
  <g id="마스크_그룹_695" data-name="마스크 그룹 695" transform="translate(13674 14112)" clip-path="url(#clip-path)">
    <path id="Octicons-mark-github" d="M50,0A50,50,0,0,0,34.188,97.438c2.5.438,3.438-1.062,3.438-2.375,0-1.187-.062-5.125-.062-9.312C25,88.063,21.75,82.688,20.75,79.875c-.562-1.437-3-5.875-5.125-7.062-1.75-.937-4.25-3.25-.062-3.312,3.938-.062,6.75,3.625,7.688,5.125,4.5,7.563,11.688,5.438,14.563,4.125A10.518,10.518,0,0,1,41,72.063C29.875,70.813,18.25,66.5,18.25,47.375a19.459,19.459,0,0,1,5.125-13.437c-.5-1.25-2.25-6.375.5-13.25,0,0,4.187-1.312,13.75,5.125a47.14,47.14,0,0,1,25,0c9.562-6.5,13.75-5.125,13.75-5.125,2.75,6.875,1,12,.5,13.25A19.346,19.346,0,0,1,82,47.375c0,19.188-11.687,23.438-22.812,24.688,1.813,1.563,3.375,4.563,3.375,9.25,0,6.688-.062,12.063-.062,13.75,0,1.313.937,2.875,3.438,2.375A50.027,50.027,0,0,0,50,0Z" transform="translate(-13674 -14110.767)" fill="#1b1f23" fill-rule="evenodd"/>
  </g>
</svg>
