<svg width="100" height="100" viewBox="0 0 100 100" fill="none" xmlns="http://www.w3.org/2000/svg">
<mask id="mask0_2_173" style="mask-type:luminance" maskUnits="userSpaceOnUse" x="0" y="0" width="100" height="100">
<path d="M100 0H0V100H100V0Z" fill="white"/>
</mask>
<g mask="url(#mask0_2_173)">
<path d="M14.7324 10.004V10.898C14.7324 11.39 16.1694 27.664 17.8944 47.061L21.0564 82.33L35.2304 86.297C43.0304 88.479 49.5644 90.275 49.7604 90.29C49.9564 90.305 56.5814 88.525 64.4834 86.338C77.1504 82.831 78.8554 82.314 78.9504 81.868C79.0764 81.268 85.2744 11.288 85.2744 10.538V10H14.7324V10.004Z" fill="white"/>
<path d="M35.3451 86.5398L21.0451 82.5398L20.8581 81.4818C20.6941 80.5398 14.4941 11.2888 14.4941 10.3748C14.4941 10.0438 18.1161 10.0068 50.0011 10.0068C83.6601 10.0068 85.5081 10.0298 85.5011 10.4238C85.5011 12.1308 79.0711 82.3008 78.9131 82.4408C78.7551 82.5808 51.0321 90.3278 50.1131 90.4628C49.8571 90.5008 43.2201 88.7398 35.3451 86.5398ZM59.0151 72.4178C63.8211 71.0928 67.8221 69.9398 67.9081 69.8568C67.9941 69.7738 68.5551 64.0738 69.1581 57.1948C69.7611 50.3158 70.3081 44.2288 70.3881 43.6848L70.5231 42.6729H49.7631V51.4919H60.9731L60.8611 52.0298C60.8011 52.3168 60.5741 54.8578 60.3321 57.6608C60.2627 59.4677 60.0308 61.2646 59.6391 63.0298C57.9826 63.6576 56.287 64.177 54.5631 64.5848L49.7631 65.8638V70.3568C49.6123 71.8588 49.6997 73.3751 50.0221 74.8498C50.1631 74.8498 54.2131 73.7658 59.0221 72.4408L59.0151 72.4178ZM70.3861 37.1178C70.2281 35.9508 68.8251 20.2888 68.8251 19.6958C68.8251 19.3368 68.0001 19.3018 59.4111 19.3018H50.0011V28.5228L54.2321 28.6868C56.5571 28.7758 59.0061 28.9138 59.6731 28.9868L60.8831 29.1278L61.1701 32.7348C61.3311 34.7178 61.5241 36.7418 61.5981 37.2348L61.7331 38.1288H70.5201L70.3861 37.1178Z" fill="#EAEBEC"/>
<path d="M35.2353 86.2976L21.0623 82.3396L17.9013 47.0746C16.1763 27.6746 14.7393 11.4036 14.7393 10.9116V10.0176H85.2733V10.5556C85.2733 11.3026 79.0733 81.2796 78.9493 81.8856C78.8573 82.3196 77.1493 82.8486 64.4823 86.3556C56.5823 88.5426 49.9583 90.3226 49.7593 90.3076C49.5603 90.2926 43.0243 88.4966 35.2293 86.3146L35.2353 86.2976ZM59.0293 72.5806C63.9153 71.2186 68.0063 69.9936 68.0923 69.8526C68.1783 69.7116 68.7623 63.7246 69.3923 56.5446C70.0223 49.3646 70.5923 43.2966 70.6543 43.0666C70.7633 42.6726 69.9303 42.6496 55.5543 42.6496H40.3143L40.9613 35.7966C41.3173 32.0286 41.6163 28.9356 41.6283 28.9236C41.6403 28.9116 43.8733 28.8406 46.5923 28.7656C51.2538 28.6348 55.9188 28.8152 60.5563 29.3056C60.6713 29.4206 61.4183 36.8396 61.4183 37.8506C61.4183 38.3506 61.4843 38.3566 66.0373 38.3566H70.6883L70.5793 37.3446C70.5193 36.7866 70.1283 32.4586 69.7173 27.7526L68.9553 19.1726L51.1433 19.1036C36.9753 19.0546 33.3223 19.1036 33.3223 19.3426C33.3223 19.5066 33.2163 20.5526 33.0923 21.6676C32.7923 24.3676 30.4653 50.4116 30.4653 51.1296V51.7046H60.7653L60.6303 52.5986C60.5553 53.0906 60.3203 55.5826 60.1073 58.1406C60.0142 59.7472 59.834 61.3475 59.5673 62.9346C59.3463 63.1476 50.4293 65.5216 49.8753 65.5216C49.6163 65.5216 47.3143 64.9466 44.7593 64.2456L40.1113 62.9726L39.9413 60.9606C39.8463 59.8606 39.7053 58.2906 39.6253 57.4716L39.4783 55.9826H30.4613V56.8766C30.4783 58.5466 31.5613 69.8116 31.7203 69.9636C31.8793 70.1156 49.2203 75.0136 49.7543 75.0336C49.9543 75.0336 54.1203 73.9336 59.0183 72.5706L59.0293 72.5806Z" fill="#F0BE25"/>
<path d="M35.2353 86.2976L21.0623 82.3396L17.9013 47.0746C16.1763 27.6746 14.7393 11.4036 14.7393 10.9116V10.0176H85.2733V10.5556C85.2733 11.3026 79.0733 81.2796 78.9493 81.8856C78.8573 82.3196 77.1493 82.8486 64.4823 86.3556C56.5823 88.5426 49.9583 90.3226 49.7593 90.3076C49.5603 90.2926 43.0243 88.4966 35.2293 86.3146L35.2353 86.2976ZM61.6653 80.9886C67.9013 79.2646 73.1173 77.7396 73.2613 77.5946C73.4853 77.3646 78.8693 18.3536 78.8463 16.3706V15.7156H49.9923V19.0526H41.6573C38.8776 18.7965 36.0767 18.893 33.3213 19.3396C33.3213 19.5036 33.2153 20.5496 33.0913 21.6626C32.7913 24.3626 30.4643 50.4066 30.4643 51.1246V51.6996H50.0103V58.5995C50.0103 63.9715 49.9443 65.4996 49.7233 65.4996C49.5593 65.4996 47.3343 64.9246 44.7793 64.2236L40.1313 62.9506L39.9613 60.9386C39.8663 59.8386 39.7253 58.2686 39.6453 57.4496L39.4983 55.9606H30.4613V56.8546C30.6816 61.2604 31.147 65.6505 31.8553 70.0046C32.0133 70.1046 36.1673 71.2926 41.0553 72.6516L49.9943 75.1606V79.6396C49.9409 81.1352 49.9957 82.6328 50.1583 84.1206C50.2473 84.1206 55.4213 82.7116 61.6583 80.9936L61.6653 80.9886ZM40.9533 35.8616C41.2953 32.1246 41.6233 29.0326 41.6803 28.9806C41.7373 28.9286 43.6353 28.8366 45.8943 28.7736L50.0043 28.6586V42.6486H40.3293L40.9533 35.8616Z" fill="#E4A126"/>
</g>
</svg>
