<svg xmlns="http://www.w3.org/2000/svg" xmlns:xlink="http://www.w3.org/1999/xlink" width="100" height="100" viewBox="0 0 100 100">
  <defs>
    <clipPath id="clip-path">
      <rect id="사각형_49318" data-name="사각형 49318" width="100" height="100" transform="translate(-14241 -14112)" fill="#fff"/>
    </clipPath>
  </defs>
  <g id="그룹_21323" data-name="그룹 21323" transform="translate(14241 14112)">
    <g id="마스크_그룹_691" data-name="마스크 그룹 691" clip-path="url(#clip-path)">
      <path id="next-js" d="M23.6,15.735H42.457v1.5H25.325V28.516h16.11v1.5H25.325V42.4H42.653v1.5H23.6Zm20.551,0h2l8.88,12.387,9.077-12.387L76.453,0,56.17,29.424,66.622,43.9H64.54L55.031,30.725,45.482,43.9H43.439L53.97,29.424Zm23.222,1.5v-1.5H88.862v1.5h-9.9V43.9H77.231V17.234ZM0,15.735H2.161l29.8,44.594L19.647,43.9,1.808,17.865,1.729,43.9H0ZM88.688,41.95a.627.627,0,1,1,.618-.627A.611.611,0,0,1,88.688,41.95Zm1.7-1.651h.925a.845.845,0,0,0,.917.838c.6,0,.942-.362.942-1.04V35.8h.942v4.3a1.741,1.741,0,0,1-1.875,1.924,1.694,1.694,0,0,1-1.85-1.726Zm4.958-.055h.934c.08.577.643.943,1.455.943.757,0,1.312-.392,1.312-.931,0-.463-.353-.741-1.156-.931l-.782-.189c-1.1-.257-1.6-.787-1.6-1.68,0-1.082.883-1.8,2.208-1.8A1.98,1.98,0,0,1,99.9,37.4h-.917a1.159,1.159,0,0,0-1.283-.909c-.744,0-1.241.358-1.241.905,0,.434.32.682,1.11.867l.669.164c1.245.291,1.758.8,1.758,1.71,0,1.162-.9,1.891-2.338,1.891-1.346,0-2.25-.695-2.317-1.781Z" transform="translate(-14241 -14092.164)"/>
    </g>
  </g>
</svg>
