<svg xmlns="http://www.w3.org/2000/svg" xmlns:xlink="http://www.w3.org/1999/xlink" width="100" height="100" viewBox="0 0 100 100">
  <defs>
    <clipPath id="clip-path">
      <rect id="사각형_49327" data-name="사각형 49327" width="100" height="100" transform="translate(-13266 -14112)" fill="#fff"/>
    </clipPath>
  </defs>
  <g id="마스크_그룹_698" data-name="마스크 그룹 698" transform="translate(13266 14112)" clip-path="url(#clip-path)">
    <g id="Layer_2_1_" transform="translate(-13266 -14110.75)">
      <g id="Surfaces">
        <g id="Photo_Surface">
          <g id="Outline_no_shadow">
            <path id="패스_15025" data-name="패스 15025" d="M17.708,0H82.292A17.693,17.693,0,0,1,100,17.708V79.792A17.693,17.693,0,0,1,82.292,97.5H17.708A17.693,17.693,0,0,1,0,79.792V17.708A17.693,17.693,0,0,1,17.708,0Z" fill="#001e36"/>
          </g>
        </g>
      </g>
      <g id="Outlined_Mnemonics_Logos" transform="translate(22.501 24.791)">
        <g id="Ps">
          <path id="패스_15026" data-name="패스 15026" d="M117,172.5V129.625c0-.292.126-.459.416-.459.708,0,1.376,0,2.333-.041,1-.041,2.041-.041,3.168-.082s2.333-.041,3.625-.082,2.541-.041,3.792-.041a24.5,24.5,0,0,1,8.584,1.3,14.878,14.878,0,0,1,5.583,3.417,13.266,13.266,0,0,1,3.033,4.749,15.949,15.949,0,0,1,.958,5.417,14.9,14.9,0,0,1-2.5,8.883,14.274,14.274,0,0,1-6.717,5.083,27,27,0,0,1-9.375,1.417c-1,0-1.666,0-2.084-.041s-1-.041-1.792-.041v13.364a.518.518,0,0,1-.459.583H117.5C117.166,173.04,117,172.873,117,172.5Zm9.083-35.291v14c.583.041,1.124.082,1.625.082h2.208a15.565,15.565,0,0,0,4.793-.75,7.165,7.165,0,0,0,3.417-2.208,6.439,6.439,0,0,0,1.3-4.292,6.858,6.858,0,0,0-.958-3.709,6.043,6.043,0,0,0-2.916-2.383,12.227,12.227,0,0,0-4.916-.834c-1.083,0-2.041,0-2.834.041a9.532,9.532,0,0,0-1.707.041Z" transform="translate(-117 -128.916)" fill="#31a8ff"/>
          <path id="패스_15027" data-name="패스 15027" d="M325.5,192.066a14.75,14.75,0,0,0-4-1.417,21.962,21.962,0,0,0-4.667-.542,8.389,8.389,0,0,0-2.5.293,2.138,2.138,0,0,0-1.3.834,2.207,2.207,0,0,0-.334,1.124,1.853,1.853,0,0,0,.416,1.083,4.7,4.7,0,0,0,1.417,1.124c.958.5,1.95.958,2.957,1.376a30.179,30.179,0,0,1,6.418,3.033,9.7,9.7,0,0,1,3.291,3.467,8.993,8.993,0,0,1,.958,4.292,9.694,9.694,0,0,1-1.625,5.542,10.441,10.441,0,0,1-4.667,3.709,19.09,19.09,0,0,1-7.542,1.333,28.7,28.7,0,0,1-5.666-.542,16.807,16.807,0,0,1-4.251-1.332.819.819,0,0,1-.459-.791V207.4a.453.453,0,0,1,.167-.375.316.316,0,0,1,.375.041,17.836,17.836,0,0,0,5.167,2.041,19.4,19.4,0,0,0,4.916.624,7.952,7.952,0,0,0,3.467-.583,1.935,1.935,0,0,0,1.124-1.751,2.208,2.208,0,0,0-1-1.666,17.672,17.672,0,0,0-4.084-1.95,25.492,25.492,0,0,1-5.917-3,10.787,10.787,0,0,1-3.168-3.542,8.94,8.94,0,0,1-.958-4.251,9.8,9.8,0,0,1,1.417-5.042,10.27,10.27,0,0,1,4.379-3.837,16.157,16.157,0,0,1,7.367-1.458,35.9,35.9,0,0,1,5.159.374,14.662,14.662,0,0,1,3.592.959.732.732,0,0,1,.416.375,2.089,2.089,0,0,1,.082.5v6.792a.514.514,0,0,1-.217.416,1.109,1.109,0,0,1-.73,0Z" transform="translate(-268.003 -172.317)" fill="#31a8ff"/>
        </g>
      </g>
    </g>
  </g>
</svg>
