<svg xmlns="http://www.w3.org/2000/svg" xmlns:xlink="http://www.w3.org/1999/xlink" width="100" height="100" viewBox="0 0 100 100">
  <defs>
    <clipPath id="clip-path">
      <rect id="사각형_49319" data-name="사각형 49319" width="100" height="100" transform="translate(-14105 -14112)" fill="#fff"/>
    </clipPath>
    <clipPath id="clip-path-2">
      <path id="path3446" d="M27.392-705.773c0,13.945,21.5,25.25,48,25.25h0c26.509,0,48-11.3,48-25.25h0c0-13.945-21.5-25.25-48-25.25h0c-26.506,0-48,11.3-48,25.25" transform="translate(-27.392 731.023)"/>
    </clipPath>
    <radialGradient id="radial-gradient" cx="0.628" cy="0.8" r="1.248" gradientTransform="translate(-0.009 0.511) scale(0.526 1)" gradientUnits="objectBoundingBox">
      <stop offset="0" stop-color="#aeb2d5"/>
      <stop offset="0.3" stop-color="#aeb2d5"/>
      <stop offset="0.75" stop-color="#484c89"/>
      <stop offset="1" stop-color="#484c89"/>
    </radialGradient>
    <clipPath id="clip-path-3">
      <path id="path3470" d="M0-770.4H100v56.251H0Z" transform="translate(0 770.401)"/>
    </clipPath>
  </defs>
  <g id="마스크_그룹_692" data-name="마스크 그룹 692" transform="translate(14105 14112)" clip-path="url(#clip-path)">
    <g id="g3438" transform="translate(-14105 -13319.724)">
      <g id="g3440" transform="translate(1.999 -767.527)">
        <g id="g3442" clip-path="url(#clip-path-2)">
          <g id="g3448">
            <g id="g3450">
              <path id="path3462" d="M27.392-705.773c0,13.945,21.5,25.25,48,25.25h0c26.509,0,48-11.3,48-25.25h0c0-13.945-21.5-25.25-48-25.25h0c-26.506,0-48,11.3-48,25.25" transform="translate(-27.392 731.023)" fill="url(#radial-gradient)"/>
            </g>
          </g>
        </g>
      </g>
      <g id="g3464" transform="translate(0 -770.401)">
        <g id="g3466" clip-path="url(#clip-path-3)">
          <g id="g3472" transform="translate(3.875 4.75)">
            <path id="path3474" d="M-585.6-593.544c25.475,0,46.125-10.462,46.125-23.375s-20.652-23.371-46.125-23.371-46.125,10.462-46.125,23.375,20.651,23.375,46.125,23.375" transform="translate(631.729 640.293)" fill="#777bb3"/>
          </g>
        </g>
      </g>
      <g id="g3476" transform="translate(0 -770.401)">
        <g id="g3478" clip-path="url(#clip-path-3)">
          <g id="g3484" transform="translate(16.61 16.439)">
            <path id="path3486" d="M-145.612-185.151a7.655,7.655,0,0,0,4.647-1.141,6.211,6.211,0,0,0,2.009-3.881,4.185,4.185,0,0,0-.38-3.532,5.246,5.246,0,0,0-3.8-.987h-3.331l-1.857,9.549Zm-10.942,11.763a.519.519,0,0,1-.4-.19.521.521,0,0,1-.11-.43l4.917-25.3a.521.521,0,0,1,.512-.422h10.6a9.321,9.321,0,0,1,7.369,2.688,8.4,8.4,0,0,1,1.438,7.451,11.9,11.9,0,0,1-1.274,3.544,11.865,11.865,0,0,1-2.345,2.939,10.291,10.291,0,0,1-3.86,2.313,17.487,17.487,0,0,1-5.3.683H-149.3l-1.225,6.306a.521.521,0,0,1-.512.422Z" transform="translate(157.082 199.734)"/>
          </g>
          <g id="g3488" transform="translate(16.089 15.92)">
            <path id="path3490" d="M-146.69-77.147h2.918c2.33,0,3.139.512,3.414.816a3.825,3.825,0,0,1,.249,3.085,5.726,5.726,0,0,1-1.815,3.567,7.181,7.181,0,0,1-4.329,1.041h-2.092Zm5-6.076h-10.6a1.042,1.042,0,0,0-1.021.843l-4.919,25.313a1.042,1.042,0,0,0,.219.862,1.042,1.042,0,0,0,.8.38h5.516a1.042,1.042,0,0,0,1.023-.843l1.141-5.885h3.863a18,18,0,0,0,5.465-.708,10.81,10.81,0,0,0,4.054-2.427,12.389,12.389,0,0,0,2.444-3.066,12.414,12.414,0,0,0,1.332-3.7,8.885,8.885,0,0,0-1.558-7.894,9.815,9.815,0,0,0-7.761-2.867M-149.6-67.588h3.354a8.1,8.1,0,0,0,4.965-1.255,6.669,6.669,0,0,0,2.2-4.185,4.594,4.594,0,0,0-.5-3.981,5.64,5.64,0,0,0-4.185-1.16h-3.776L-149.6-67.58m7.923-14.582a8.8,8.8,0,0,1,6.977,2.511,7.879,7.879,0,0,1,1.318,7.01,11.33,11.33,0,0,1-1.217,3.388,11.3,11.3,0,0,1-2.243,2.81,9.735,9.735,0,0,1-3.669,2.2,16.9,16.9,0,0,1-5.136.656h-4.721l-1.307,6.728h-5.516l4.917-25.3h10.6" transform="translate(158.244 83.222)" fill="#fff"/>
          </g>
          <g id="g3492" transform="translate(40.074 9.713)">
            <path id="path3494" d="M-177.987-334.484a.519.519,0,0,1-.4-.19.519.519,0,0,1-.11-.43l2.176-11.2c.207-1.065.156-1.83-.143-2.151-.19-.19-.734-.529-2.363-.529h-3.941l-2.735,14.076a.521.521,0,0,1-.512.422h-5.469a.521.521,0,0,1-.4-.19.521.521,0,0,1-.108-.43l4.917-25.3a.521.521,0,0,1,.512-.422h5.475a.521.521,0,0,1,.4.19.521.521,0,0,1,.108.43l-1.187,6.108h4.24a9.844,9.844,0,0,1,6.7,1.741,5.8,5.8,0,0,1,1.206,5.68L-171.91-334.9a.521.521,0,0,1-.512.422Z" transform="translate(192.007 360.829)"/>
          </g>
          <g id="g3496" transform="translate(39.555 9.192)">
            <path id="path3498" d="M-145.1,0h-5.469a1.042,1.042,0,0,0-1.023.843l-4.917,25.3a1.041,1.041,0,0,0,.219.862,1.042,1.042,0,0,0,.8.38h5.469a1.042,1.042,0,0,0,1.023-.843l2.654-13.654h3.512c1.626,0,1.967.348,1.98.361.1.107.228.6.013,1.7l-2.176,11.2a1.041,1.041,0,0,0,.219.862,1.042,1.042,0,0,0,.8.38h5.556a1.042,1.042,0,0,0,1.023-.843l2.283-11.775a6.277,6.277,0,0,0-1.364-6.163,10.3,10.3,0,0,0-7.04-1.877h-3.614l1.065-5.488a1.042,1.042,0,0,0-.219-.86,1.042,1.042,0,0,0-.8-.38m0,1.042L-146.4,7.771h4.879a9.488,9.488,0,0,1,6.344,1.6,5.307,5.307,0,0,1,1.048,5.2l-2.283,11.775h-5.556l2.159-11.2a3.044,3.044,0,0,0-.274-2.606,3.843,3.843,0,0,0-2.743-.694h-4.375l-2.817,14.5h-5.469l4.917-25.3h5.469" transform="translate(156.525)" fill="#fff"/>
          </g>
          <g id="g3500" transform="translate(59.633 16.439)">
            <path id="path3502" d="M-145.612-185.151a7.655,7.655,0,0,0,4.647-1.141,6.211,6.211,0,0,0,2.009-3.881,4.185,4.185,0,0,0-.38-3.532,5.246,5.246,0,0,0-3.8-.987h-3.331l-1.857,9.549Zm-10.942,11.763a.519.519,0,0,1-.4-.19.521.521,0,0,1-.11-.43l4.917-25.3a.521.521,0,0,1,.512-.422h10.6a9.321,9.321,0,0,1,7.369,2.688,8.4,8.4,0,0,1,1.438,7.451,11.9,11.9,0,0,1-1.274,3.544,11.865,11.865,0,0,1-2.345,2.939,10.291,10.291,0,0,1-3.86,2.313,17.487,17.487,0,0,1-5.3.683H-149.3l-1.225,6.306a.521.521,0,0,1-.512.422Z" transform="translate(157.082 199.734)"/>
          </g>
          <g id="g3504" transform="translate(59.114 15.92)">
            <path id="path3506" d="M-146.688-77.147h2.918c2.33,0,3.139.512,3.414.816a3.823,3.823,0,0,1,.249,3.084,5.728,5.728,0,0,1-1.815,3.567,7.181,7.181,0,0,1-4.329,1.041h-2.092Zm5-6.076h-10.6a1.042,1.042,0,0,0-1.022.843l-4.919,25.313a1.042,1.042,0,0,0,.219.862,1.042,1.042,0,0,0,.8.38h5.516a1.042,1.042,0,0,0,1.023-.843l1.141-5.885h3.863a18,18,0,0,0,5.465-.708,10.81,10.81,0,0,0,4.056-2.427,12.384,12.384,0,0,0,2.444-3.064,12.414,12.414,0,0,0,1.332-3.7,8.887,8.887,0,0,0-1.558-7.894,9.815,9.815,0,0,0-7.761-2.867M-149.6-67.586h3.354a8.1,8.1,0,0,0,4.965-1.255,6.669,6.669,0,0,0,2.2-4.185,4.594,4.594,0,0,0-.5-3.981,5.64,5.64,0,0,0-4.185-1.16h-3.776l-2.058,10.59m7.923-14.582A8.8,8.8,0,0,1-134.7-79.65a7.879,7.879,0,0,1,1.318,7.01,11.33,11.33,0,0,1-1.217,3.388,11.3,11.3,0,0,1-2.243,2.81,9.735,9.735,0,0,1-3.669,2.2,16.9,16.9,0,0,1-5.136.656h-4.721l-1.307,6.728h-5.516l4.917-25.3h10.6" transform="translate(158.242 83.222)" fill="#fff"/>
          </g>
        </g>
      </g>
    </g>
  </g>
</svg>
