<svg xmlns="http://www.w3.org/2000/svg" xmlns:xlink="http://www.w3.org/1999/xlink" width="100" height="100" viewBox="0 0 100 100">
  <defs>
    <clipPath id="clip-path">
      <rect id="사각형_49326" data-name="사각형 49326" width="100" height="100" transform="translate(-13411 -14112)" fill="#fff"/>
    </clipPath>
  </defs>
  <g id="마스크_그룹_697" data-name="마스크 그룹 697" transform="translate(13411 14112)" clip-path="url(#clip-path)">
    <g id="그룹_21325" data-name="그룹 21325" transform="translate(-7828.501 -8402.001)">
      <g id="Layer_2_1_" transform="translate(-5582.499 -5708.749)">
        <g id="Surfaces">
          <g id="UI_UX_Surface">
            <g id="Outline_no_shadow">
              <path id="패스_15022" data-name="패스 15022" d="M17.708,0H82.292A17.693,17.693,0,0,1,100,17.708V79.792A17.693,17.693,0,0,1,82.292,97.5H17.708A17.693,17.693,0,0,1,0,79.792V17.708A17.693,17.693,0,0,1,17.708,0Z" fill="#470137"/>
            </g>
          </g>
        </g>
        <g id="Outlined_Mnemonics_Logos">
          <g id="Xd">
            <path id="패스_15023" data-name="패스 15023" d="M52.583,25.625,40.083,46.25,53.417,68.125a.717.717,0,0,1,.083.5c-.042.167-.208.042-.458.083H43.5c-.667,0-1.125-.042-1.417-.458-.875-1.75-1.792-3.458-2.667-5.208-.875-1.708-1.833-3.458-2.833-5.25s-2-3.583-3-5.417H33.5c-.875,1.792-1.833,3.583-2.792,5.375s-1.917,3.583-2.833,5.333c-.958,1.75-1.917,3.542-2.875,5.25-.167.417-.5.458-.958.458H14.875c-.167,0-.292.083-.292-.125a.579.579,0,0,1,.083-.458l12.958-21.25L15,25.583c-.125-.167-.167-.333-.083-.417A.483.483,0,0,1,15.333,25h9.458a2.458,2.458,0,0,1,.583.083,1.182,1.182,0,0,1,.417.375c.792,1.792,1.708,3.583,2.667,5.375,1,1.792,1.958,3.542,3,5.292,1,1.75,1.917,3.5,2.792,5.292h.083c.875-1.833,1.792-3.625,2.708-5.375s1.875-3.5,2.833-5.25,1.875-3.542,2.792-5.25a.708.708,0,0,1,.25-.417.8.8,0,0,1,.542-.083H52.25a.384.384,0,0,1,.458.292c.042.042-.042.208-.125.292Z" fill="#ff61f6"/>
            <path id="패스_15024" data-name="패스 15024" d="M71.833,69.583a20.715,20.715,0,0,1-8.958-1.875,14.526,14.526,0,0,1-6.292-5.667,18.029,18.029,0,0,1-2.292-9.5,17.113,17.113,0,0,1,2.292-8.792,17.3,17.3,0,0,1,6.625-6.458A21.313,21.313,0,0,1,73.75,34.875a7.44,7.44,0,0,1,.875.042c.375.042.792.042,1.292.083V21.833c0-.292.125-.458.417-.458h8.458a.375.375,0,0,1,.417.292v39.75c0,.75.042,1.583.083,2.5.083.875.125,1.708.167,2.417a.677.677,0,0,1-.417.667,31.821,31.821,0,0,1-6.792,2A36.754,36.754,0,0,1,71.833,69.583Zm4.083-8.333V42.917a10.658,10.658,0,0,0-1.125-.208c-.458-.042-.917-.083-1.375-.083a10.272,10.272,0,0,0-4.708,1.083,9.341,9.341,0,0,0-3.542,3.083,9.236,9.236,0,0,0-1.375,5.292,11.611,11.611,0,0,0,.708,4.292,8.144,8.144,0,0,0,1.875,2.958A7.2,7.2,0,0,0,69.208,61a10.907,10.907,0,0,0,3.458.542c.625,0,1.208-.042,1.75-.083a3.644,3.644,0,0,0,1.5-.208Z" fill="#ff61f6"/>
          </g>
        </g>
      </g>
    </g>
  </g>
</svg>
